<svg width="20" height="20" viewBox="0 0 20 20" fill="none" xmlns="http://www.w3.org/2000/svg">
<path d="M3.1998 10C3.1998 6.24001 6.2398 3.20001 9.9998 3.20001C13.7598 3.20001 16.7998 6.24001 16.7998 10C16.7998 13.76 13.7598 16.8 9.9998 16.8C6.2398 16.8 3.1998 13.76 3.1998 10ZM15.9998 10C15.9998 6.68001 13.3198 4.00001 9.9998 4.00001C6.6798 4.00001 3.9998 6.68001 3.9998 10C3.9998 13.32 6.6798 16 9.9998 16C13.3198 16 15.9998 13.32 15.9998 10Z" fill="white"/>
<path d="M9.31977 13.32L12.6398 9.99999L9.31977 6.68L9.87977 6.12L13.7598 9.99999L9.87977 13.88L9.31977 13.32Z" fill="white"/>
<path d="M13.2002 9.59998V10.4L6.4002 10.4V9.59998L13.2002 9.59998Z" fill="white"/>
</svg>
