<svg width="216" height="60" viewBox="0 0 216 60" fill="none" xmlns="http://www.w3.org/2000/svg">
<path d="M0 19.2478L0 13.4579L16.7175 13.4579L16.7175 36.21L33.7613 36.21V32.7442L44.4034 31.2763V42L6.0754 42L6.0754 19.2478H0Z" fill="white"/>
<path fill-rule="evenodd" clip-rule="evenodd" d="M84.6524 13.9925C84.7629 14.6162 84.305 15.0189 83.9497 15.3031C83.6576 15.5321 83.405 15.8242 83.097 16.0453C82.3786 16.5585 81.597 17.0006 80.839 17.4743C79.6547 18.2164 78.4942 18.9823 77.373 19.7797C76.7572 20.2218 76.1177 20.6955 75.644 21.2798C75.0045 22.0851 74.4676 22.9772 74.0255 23.9957C73.8913 24.3036 73.686 24.5563 73.5597 24.8484C73.4807 25.0931 73.3939 25.33 73.3149 25.5748C73.2518 25.7327 73.157 25.9142 73.1412 26.1037C73.0465 26.08 72.9991 26.1353 72.9438 26.1748C73.1965 25.03 73.4412 23.8852 73.7413 22.843C73.9781 22.0456 74.136 21.3508 74.5071 20.7113C74.9729 19.9139 75.5177 19.2112 76.0703 18.5165C76.2519 18.3191 76.4335 18.1138 76.6151 17.9085C77.2625 17.3085 77.9178 16.7006 78.5652 16.1005C78.8652 15.7295 79.1416 15.3426 79.4495 14.9794C79.5837 14.9636 79.7179 14.9478 79.8521 14.9321C79.9311 14.8926 80.01 14.861 80.089 14.8215C80.3732 14.6715 80.6653 14.4741 81.0127 14.4031C81.2969 14.3399 81.6443 14.482 81.9128 14.4031C82.2523 14.3004 82.5444 14.1267 82.9234 14.032C83.2313 13.9846 83.5392 13.9452 83.8471 13.8978C84.1629 13.8978 84.4076 13.9373 84.6366 13.9925" fill="#941409"/>
<path fill-rule="evenodd" clip-rule="evenodd" d="M85.2522 14.5452C85.9469 15.2479 86.1522 17.2059 85.3232 17.8848C84.0521 18.9428 82.1178 19.3612 80.4993 20.0639C78.9676 20.735 77.5938 21.5482 76.3701 22.5193C76.1253 22.7404 75.8806 22.9536 75.6279 23.1746C75.3437 23.522 75.0674 23.8694 74.7911 24.2326C74.5858 24.501 74.3726 24.7773 74.1594 25.0458C74.0094 25.3063 73.8594 25.5748 73.7173 25.8353C73.5673 26.0722 73.362 26.3406 73.3068 26.6643H73.2989V26.6406C73.1647 26.4906 73.4489 25.6537 73.4962 25.5274C73.8594 24.4773 74.3884 23.601 74.9253 22.7167C75.2569 22.1798 75.5964 21.7061 75.9753 21.2403C76.4569 20.6403 77.1754 20.1745 77.8149 19.7244C79.3071 18.6586 80.894 17.6875 82.4652 16.7006C82.9547 16.3927 83.4047 16.0216 83.8468 15.6663C84.289 15.311 84.5732 14.8215 85.1022 14.5452H85.2522Z" fill="#941409"/>
<path fill-rule="evenodd" clip-rule="evenodd" d="M78.9522 14.9005C79.0469 15.2163 78.7943 15.3505 78.6522 15.54C78.2811 16.0611 77.8784 16.5111 77.381 16.9058C75.9046 18.098 74.3493 20.0165 73.7335 22.0614C73.6782 22.3535 73.615 22.6535 73.5598 22.9457C73.4413 23.2694 73.3308 23.5852 73.2124 23.9089C73.1097 24.3668 73.0071 24.8326 72.9045 25.2905C72.8492 25.5116 72.7782 26.3327 72.636 26.4116C72.6124 26.4353 72.5966 26.4511 72.5729 26.4748C72.1228 25.2116 72.1702 23.222 72.4387 21.8009C72.5808 21.0508 72.6045 20.3008 72.786 19.5902C73.1808 18.0428 73.844 16.7637 74.9177 15.9032C75.0914 15.7532 75.2651 15.5952 75.4309 15.4452C75.8257 15.2005 76.2757 14.9399 76.7494 14.7899C76.9705 14.7505 77.1916 14.711 77.4126 14.6636C78.0284 14.6636 78.4864 14.7347 78.9443 14.8847" fill="#941409"/>
<path fill-rule="evenodd" clip-rule="evenodd" d="M86.7366 18.8954C86.6261 19.2823 85.7024 19.8981 85.3392 20.1034C84.5023 20.5929 83.4838 20.8455 82.5048 21.185C81.3363 21.5956 80.1758 22.0061 79.0941 22.4956C78.2572 22.8746 77.4677 23.4509 76.7414 23.9641C76.165 24.3668 75.5097 24.7458 75.0755 25.2984C74.6965 25.8353 74.3175 26.3643 73.9386 26.9011C73.8359 27.0985 73.7333 27.288 73.6306 27.4775V27.5012H73.6149C73.5517 27.3433 73.4806 27.1854 73.4175 27.0354C73.457 26.609 73.7412 26.2222 73.9228 25.9142C74.3649 25.1721 74.7833 24.4852 75.3044 23.8299C76.6387 22.164 78.873 20.9877 80.9732 20.0955C81.8653 19.756 82.7575 19.4244 83.6496 19.0849C84.1628 18.8638 84.6444 18.5875 85.0787 18.2875C85.2602 18.1454 85.4418 18.0033 85.6234 17.8533C85.7576 17.8059 85.8919 17.7664 86.0261 17.719C86.3261 17.719 86.8235 18.5638 86.7288 18.9033" fill="#941409"/>
<path fill-rule="evenodd" clip-rule="evenodd" d="M86.7444 19.3691C86.8155 19.5192 86.7365 19.7481 86.7681 19.9218C86.8155 20.1745 86.8628 20.4192 86.7681 20.6955C86.6181 21.1456 85.4733 21.6035 85.0075 21.793C84.0837 22.1719 82.9705 22.3061 81.9599 22.6062C80.3019 23.1036 78.6203 23.6641 77.2544 24.4773C76.4728 24.9431 75.6912 25.5116 75.1306 26.2064C75.0201 26.309 74.9095 26.4116 74.799 26.5143C74.4753 26.9169 74.1516 27.3196 73.8279 27.7222V27.7459C73.8042 27.7301 73.7805 27.7143 73.7568 27.6986C73.8437 27.2959 74.1516 26.9406 74.349 26.6248C74.9964 25.5984 75.5017 25.0616 76.4807 24.3668C77.507 23.6404 78.5492 22.9141 79.773 22.393C81.4467 21.6824 83.3574 21.1929 85.0233 20.4587C85.6549 20.1745 86.1681 19.7402 86.697 19.3534C86.7128 19.3534 86.7286 19.3612 86.7444 19.3691Z" fill="#941409"/>
<path fill-rule="evenodd" clip-rule="evenodd" d="M86.8549 21.1771C86.9339 21.335 87.0207 21.4929 87.0997 21.643C87.1549 21.8798 86.926 22.1482 86.8312 22.2746C86.4522 22.7641 85.8759 23.072 85.2522 23.3246C84.6364 23.5694 83.9495 23.6799 83.2389 23.8536C82.4415 24.0352 81.6362 24.2168 80.8309 24.3984C80.0335 24.5721 79.2045 24.651 78.5097 24.9273C77.8307 25.1958 77.2149 25.5353 76.607 25.8906C76.2201 26.1195 75.8095 26.2853 75.4464 26.5459C75.2095 26.7117 74.9253 26.9248 74.7437 27.1538C74.6174 27.3038 74.491 27.4617 74.3647 27.6117C74.2384 27.6591 74.12 27.7065 73.9937 27.7617C75.6595 25.3616 78.2255 23.9878 81.3204 23.0167C82.402 22.6772 83.6652 22.5193 84.7232 22.1009C85.1338 21.943 85.5759 21.7851 85.947 21.5719C86.097 21.4851 86.247 21.3903 86.3891 21.3035C86.5233 21.264 86.6496 21.2324 86.7838 21.1929H86.847L86.8549 21.1771Z" fill="#941409"/>
<path fill-rule="evenodd" clip-rule="evenodd" d="M86.9576 23.6325C86.5312 24.6036 85.8838 24.8326 84.7232 25.0537C84.3601 25.0931 83.989 25.1247 83.6258 25.1642C83.0968 25.2589 82.4889 25.3537 81.9757 25.4484C81.6046 25.4563 81.2257 25.4642 80.8546 25.4721C80.6177 25.5432 80.3177 25.5274 80.0572 25.5826L78.6124 25.8827C77.8544 26.1116 77.1439 26.3722 76.4649 26.6722C75.9122 26.9169 75.3596 27.3117 74.7358 27.4617C75.2096 26.8301 75.9359 26.5064 76.6307 26.0958C77.3965 25.6458 78.1702 25.2037 79.094 24.9273C79.6387 24.8168 80.1835 24.7142 80.7204 24.6036C81.9757 24.3273 83.2389 24.0431 84.4943 23.7668C85.2048 23.5536 85.8601 23.2773 86.4286 22.9141C86.6418 22.7799 86.9655 22.3772 87.2418 22.3851C87.2418 23.0167 87.1313 23.2141 86.9497 23.6404" fill="#941409"/>
<path fill-rule="evenodd" clip-rule="evenodd" d="M65.6962 13.8188C66.1778 14.5057 66.691 15.2242 67.0383 16.0295C67.3778 16.8032 67.6779 17.6006 68.0016 18.4059C68.2226 18.9665 68.5147 19.5192 68.72 20.0718C68.8148 20.4745 68.9174 20.8771 69.02 21.2798C69.2806 22.2114 69.478 23.1509 69.6753 24.1931C69.5253 24.1062 69.3832 24.0273 69.1858 24.1062C68.9253 24.58 69.17 25.3537 69.7385 25.2511C69.7701 25.4484 69.7938 25.6537 69.8253 25.8511C69.4464 26.0011 69.7701 26.5695 70.0227 26.6485C70.0306 26.7432 70.0464 26.8459 70.0622 26.9485C70.0622 26.9564 70.0543 26.9643 70.0543 26.9722H70.0385C69.9201 26.8143 69.8806 26.6643 69.7069 26.5538C69.5885 26.5538 69.5569 26.5932 69.5016 26.6485C69.5016 26.6564 69.4937 26.6643 69.4858 26.6722C69.4227 26.4748 69.3516 26.2695 69.2885 26.0721C69.6201 25.9221 69.3358 25.2984 69.0279 25.2826C69.0042 25.2353 68.9885 25.1879 68.9648 25.1326C68.949 24.9984 69.0437 24.8168 68.9727 24.651C68.8779 24.4142 68.7042 24.3115 68.6016 24.0589C69.4385 24.2563 68.8463 22.7404 68.3095 23.2457V23.2694C68.2384 23.072 68.1595 22.8825 68.0884 22.693C67.891 22.3061 67.6936 21.9193 67.4963 21.5324C66.8173 20.3876 66.1067 19.2507 65.404 18.1296C65.183 17.7822 64.9066 17.4664 64.6856 17.1348C64.425 16.7322 64.2434 16.29 63.9908 15.8874C63.6829 15.39 63.3197 14.9321 62.9644 14.482C62.4749 13.8583 61.9302 13.2977 61.3775 12.7451C61.1485 12.5161 60.8801 12.1608 60.5801 12.0187C60.5643 11.995 60.5485 11.9793 60.5327 11.9556C60.8959 11.774 61.2907 11.6161 61.717 11.5134C61.8907 11.4898 62.0723 11.4661 62.246 11.4424C64.425 11.4424 64.8277 12.5635 65.712 13.8188" fill="#941409"/>
<path fill-rule="evenodd" clip-rule="evenodd" d="M67.646 23.5931C67.4802 23.8378 67.7407 24.3905 68.0881 24.1615C68.3882 23.9562 68.0881 23.5299 67.7644 23.5457C67.7329 23.5773 67.6934 23.5852 67.6381 23.5931M67.3618 23.7904C67.8276 23.6799 67.5671 22.8114 67.0618 22.8193C66.5959 23.0562 66.9433 23.8931 67.3618 23.7904ZM61.3693 12.9898C61.7799 13.4951 62.2852 13.9294 62.6878 14.4426C63.3668 15.311 63.959 16.2427 64.559 17.1901C65.9643 19.4244 67.5434 21.5324 68.4829 24.2168C67.8118 24.2089 68.2697 25.5037 68.8145 25.2511C68.8382 25.2826 68.8619 25.3142 68.8856 25.3458C68.8461 25.4011 68.8145 25.4642 68.775 25.5195C68.704 25.78 68.9724 26.0564 69.1619 26.0722C69.1303 26.1748 69.1619 26.2853 69.1856 26.3722C69.1461 26.3643 69.1145 26.3564 69.075 26.3485C68.854 26.5695 69.0119 26.909 69.1224 27.138C69.0356 27.1064 68.9961 27.0748 68.8619 27.0748C68.8303 26.9485 68.8777 26.7669 68.8145 26.6169C68.7592 26.4985 68.6329 26.4669 68.5697 26.3722C68.5145 26.2379 68.4513 26.1037 68.396 25.9616C68.6171 25.6458 68.396 25.2274 68.1592 25.0616C68.1039 25.0221 67.9776 25.0221 67.9223 24.9747C67.875 24.9273 67.8513 24.8168 67.8118 24.7694C67.8197 24.7142 67.8829 24.6352 67.8592 24.5247C67.8118 24.2957 67.5671 24.0668 67.3144 24.2326C67.2276 24.1141 67.1644 23.9799 67.0697 23.8536C66.9907 23.7431 66.8802 23.7194 66.7617 23.6404C66.6749 23.5457 66.5802 23.4431 66.4933 23.3404C66.2407 23.0878 65.988 22.843 65.7038 22.6141C65.4511 22.3377 65.1985 22.0535 64.938 21.7772C64.559 21.3903 64.18 21.0034 63.8011 20.6166C62.4194 18.9033 60.8562 17.3006 59.1429 15.919C58.7718 15.6189 58.5192 15.1294 58.1797 14.8373C58.306 14.6005 58.4244 14.3715 58.5508 14.1346C58.685 13.8267 58.7245 13.4714 58.8981 13.2109C59.1587 12.8161 59.6087 12.4609 59.9956 12.2003C60.1219 12.1372 60.2482 12.0661 60.3745 12.0029C60.7219 12.2635 61.0851 12.6503 61.3614 12.9898H61.3693Z" fill="#941409"/>
<path fill-rule="evenodd" clip-rule="evenodd" d="M70.6699 26.2379C71.1436 26.1195 71.0962 24.9589 70.4488 24.9589C69.8251 25.2668 70.1251 26.3722 70.6699 26.2379ZM65.9564 12.9346C66.1222 13.0214 66.2643 13.0214 66.4617 13.0925C66.6986 13.1793 66.9512 13.3293 67.2118 13.4162C67.4802 13.503 68.5855 13.6609 68.7118 13.7951C68.7987 13.9373 68.8855 14.0715 68.9724 14.2136C69.4698 14.9952 69.7856 15.8953 70.0935 16.8901C70.3935 17.8533 70.583 18.8875 70.7962 19.9613C70.8514 20.3876 70.9067 20.8061 70.9541 21.2324C71.0725 21.9509 70.9541 22.543 71.0804 23.2773C71.1041 23.6404 71.1278 24.0036 71.1515 24.3589C71.2699 25.0931 71.2778 25.9537 71.262 26.6643C71.2541 26.6643 71.2462 26.6722 71.2383 26.6722C71.1515 26.6248 71.0883 26.5774 70.9541 26.5774C70.9304 26.609 70.9067 26.6406 70.883 26.6722C70.8041 26.5774 70.8041 26.459 70.6856 26.4037C70.6462 26.4037 70.6146 26.3958 70.5751 26.3958C70.3935 26.5695 70.433 26.9169 70.4646 27.2248H70.4488C70.3856 26.9722 70.1804 26.8696 70.1409 26.6248C70.133 26.5616 70.2514 26.4669 70.2277 26.3327C70.1961 26.159 70.1014 26.08 70.0303 25.9616C69.9909 25.8037 69.9593 25.6458 69.9198 25.4958C69.8566 25.1642 70.0067 25.0063 69.9593 24.73C69.8803 24.3273 69.8566 23.8852 69.7619 23.4588C69.5408 22.4641 69.2882 21.5877 69.0434 20.6245C68.7592 19.8507 68.4671 19.077 68.1829 18.3033C67.7092 17.1111 67.3144 15.9426 66.6749 14.9242C66.2407 14.2294 65.7591 13.5504 65.2695 12.903C65.0643 12.6503 64.8669 12.3977 64.6616 12.1529C65.088 12.4135 65.5143 12.6819 65.9406 12.9425L65.9564 12.9346Z" fill="#941409"/>
<path fill-rule="evenodd" clip-rule="evenodd" d="M70.0384 14.3952C70.2911 14.4583 70.9148 14.4978 71.049 14.6557C71.7991 15.5716 71.9806 16.8901 72.2333 18.3191C72.2965 18.6586 72.2333 19.0454 72.2965 19.4244C72.2965 19.5507 72.3043 19.6692 72.3122 19.7955C72.1149 20.6561 71.878 21.4929 71.7201 22.4562C71.7201 22.6535 71.7122 22.843 71.7122 23.0325C71.5938 23.7589 71.6885 24.6984 71.8227 25.2984C71.807 25.5905 71.7912 25.8827 71.7754 26.1748C71.6806 26.1195 71.6175 26.0406 71.4911 26.0485C71.4675 25.6616 71.4438 25.2668 71.4201 24.88C71.349 24.1694 71.2701 23.4588 71.199 22.7483C71.199 22.5667 71.2069 22.3772 71.2148 22.1956C71.1911 21.7219 71.1674 21.2403 71.1438 20.7666C71.0569 20.1981 70.9701 19.6297 70.8832 19.0691C70.5753 17.6717 70.2358 16.3295 69.7147 15.1452C69.5016 14.6715 69.2094 14.261 68.9331 13.8504C69.3121 14.032 69.6121 14.2846 70.0542 14.3952" fill="#941409"/>
<path fill-rule="evenodd" clip-rule="evenodd" d="M72.8728 17.7112C72.7938 18.0585 72.7148 18.4059 72.6359 18.7454C72.5806 18.9191 72.5175 19.0928 72.4622 19.2665C72.4543 19.0218 72.4385 18.7849 72.4227 18.5401C72.3596 18.1138 72.3043 17.6954 72.2411 17.269C72.0674 16.4795 71.8701 15.7453 71.5148 15.1373C71.42 14.9873 71.3174 14.8373 71.2227 14.6952C72.2332 14.9952 73.1649 16.2032 72.8728 17.7191" fill="#941409"/>
<path fill-rule="evenodd" clip-rule="evenodd" d="M58.4485 15.3742C58.7169 15.7137 59.0406 16.0769 59.3722 16.3453C60.7617 17.4664 62.0487 18.8244 63.154 20.2297C63.3908 20.4903 63.6198 20.7508 63.8567 21.0034C64.4172 21.5798 64.9778 22.164 65.5304 22.7404C65.8304 22.9772 66.3042 23.2378 66.4779 23.5931C66.5094 23.6167 66.5331 23.6404 66.5647 23.6641C66.2963 23.7904 66.6673 24.3668 66.7542 24.4378C66.9121 24.5879 67.1647 24.5168 67.1884 24.2878C67.2911 24.3668 67.2832 24.5563 67.3621 24.6589C67.5121 24.8563 67.6621 24.7142 67.7727 24.9905C67.4411 25.3537 67.7648 26.0327 68.278 26.0248C68.3174 26.1195 68.349 26.2143 68.3885 26.309C68.0253 26.5143 68.2701 27.1301 68.7122 27.059C68.7201 27.0827 68.728 27.1064 68.7359 27.1301C68.728 27.1933 68.7201 27.2643 68.7122 27.3275C68.5385 27.2012 68.3806 26.988 68.0964 26.9801C68.0885 26.9801 68.0806 26.988 68.0727 26.9959C67.9779 27.1459 67.9937 27.3038 68.0806 27.438C67.7411 27.4696 67.52 26.309 66.92 26.6643C66.8173 26.5301 66.6673 26.3959 66.4936 26.2774C66.5884 26.309 66.6831 26.3169 66.7621 26.2774C67.1805 26.1037 66.8568 25.3458 66.3673 25.3616C65.9726 25.5669 66.0594 25.9142 66.2726 26.1195C65.8383 25.8511 65.333 25.6142 65.0015 25.3695C64.6935 25.1405 64.4093 24.8642 64.0777 24.651C63.0434 23.9957 61.9065 23.4273 60.8012 22.8667C60.067 22.5193 59.3327 22.1719 58.5985 21.8324C58.1248 21.564 57.651 21.2877 57.1773 21.0192C56.901 20.8376 56.6168 20.6482 56.3404 20.4666C56.2852 20.3087 56.5536 19.9534 56.6326 19.8113C56.9563 19.2586 57.5879 18.7138 57.6905 18.027H57.6984C57.7774 18.248 57.9668 18.4375 58.0932 18.6191C58.5116 19.2112 58.9537 19.7639 59.5143 20.206C60.5091 21.0034 61.5355 21.8403 62.6329 22.5351C63.5961 23.143 64.6225 23.6483 65.5225 24.3115C65.8936 24.6273 66.2647 24.9431 66.6358 25.2589C66.7463 25.3537 66.9831 25.5037 67.0305 25.6537C67.0147 25.7721 67.0068 25.8827 66.991 26.0011C67.0384 26.2064 67.299 26.5932 67.5753 26.5538C68.1674 26.4827 67.67 25.48 67.1647 25.5905C67.1253 25.5353 67.0858 25.4721 67.0384 25.4169C67.599 25.5905 67.449 24.4615 66.7542 24.6668C66.7384 24.6905 66.7305 24.7063 66.7147 24.73C66.6673 24.8405 66.7147 25.0616 66.7621 25.1642C66.3594 24.8247 65.9647 24.4852 65.5699 24.1378C65.0172 23.7431 64.4251 23.3483 63.7935 23.0799C63.454 22.8351 63.1145 22.5983 62.7671 22.3535C62.0487 21.8482 61.3302 21.3429 60.6196 20.8376C59.7591 20.2297 58.9932 19.5665 58.3616 18.7296C58.1721 18.477 57.8721 18.2086 57.7458 17.9006C57.6984 17.8217 57.8484 17.2532 57.8721 17.1032C57.8326 16.7164 57.801 16.3216 57.7616 15.9347C57.8326 15.5321 58.0221 15.2558 58.1326 14.9084C58.2432 15.0584 58.3458 15.2005 58.4563 15.3505" fill="#941409"/>
<path fill-rule="evenodd" clip-rule="evenodd" d="M66.1301 26.6801C65.9485 26.8696 66.1933 27.4459 66.5012 27.2564C66.817 27.1143 66.5328 26.609 66.2012 26.6169C66.1775 26.6406 66.1538 26.6564 66.1301 26.6801ZM56.9954 21.1061C57.4849 21.4377 58.006 21.7298 58.527 22.0298C59.056 22.2825 59.5771 22.5351 60.1061 22.7799C61.4562 23.4509 62.7983 24.1378 64.0616 24.9116C64.9932 25.5353 65.9169 26.1511 66.8486 26.7748C66.7775 27.2801 67.4012 27.8407 67.796 27.4696C67.8434 27.5249 67.8907 27.588 67.946 27.6433C67.9697 27.7222 67.9855 27.8091 68.0092 27.888C68.096 27.967 68.1907 28.0538 68.2776 28.1328C68.1197 28.0538 67.6223 27.9828 67.796 28.3302C67.946 28.6381 68.4276 28.6223 68.546 28.946C68.3802 28.8986 68.2144 28.8434 68.0249 28.8513C67.9855 28.9065 67.9697 28.946 67.9776 29.0486C67.8197 28.9855 67.6302 29.0092 67.4486 29.0249C66.9038 28.6065 66.4143 28.0933 65.8459 27.6907C65.1511 27.2327 64.4563 26.7748 63.7616 26.3248C63.4615 26.1669 63.1694 26.009 62.8773 25.859C62.0562 25.3537 61.2351 24.8484 60.414 24.3431C59.7824 24.0036 59.1587 23.672 58.527 23.3325C57.9823 23.0404 57.4612 22.7404 56.948 22.4167C56.7348 22.2825 56.5217 22.1482 56.3085 22.0061C56.1269 21.7456 56.1585 20.9008 56.269 20.585C56.5138 20.7587 56.7506 20.9324 56.9954 21.0982V21.1061Z" fill="#941409"/>
<path fill-rule="evenodd" clip-rule="evenodd" d="M58.1796 23.3404C58.7243 23.6246 59.2691 23.9168 59.806 24.201C60.635 24.7063 61.464 25.2116 62.293 25.7169C62.6798 25.9458 63.1141 26.0879 63.5167 26.3169C63.9352 26.6011 64.3457 26.8853 64.7641 27.1696C65.4273 27.6354 66.0511 28.1012 66.6748 28.5907C66.8958 28.7644 67.2669 28.9855 67.3853 29.2302C67.4011 29.325 67.4169 29.4276 67.4327 29.5302C66.9511 29.5302 66.7932 29.325 66.4221 29.1592C65.7984 28.8591 65.1747 28.5591 64.551 28.2591C64.0141 28.038 63.4772 27.8249 62.9404 27.6038C62.3166 27.2959 61.7008 26.9959 61.0771 26.688C60.1218 26.2695 59.1902 25.7958 58.3769 25.2195C57.9111 24.8879 57.3664 24.4931 57.0111 24.051C56.8532 23.8615 56.6874 23.672 56.5295 23.4825C56.5532 22.993 56.5216 22.5904 56.4189 22.2114C56.9874 22.6062 57.5795 22.9772 58.1796 23.3325" fill="#941409"/>
<path fill-rule="evenodd" clip-rule="evenodd" d="M57.5484 24.7537C58.4169 25.4484 59.3801 26.1195 60.4617 26.5932C61.3618 26.988 62.2776 27.4459 63.1619 27.8407C63.9198 28.1723 64.7014 28.4723 65.3962 28.8749C65.862 29.1513 66.5568 29.3408 66.9594 29.6724C66.7384 29.6645 66.5252 29.6566 66.3041 29.6487C65.4436 29.475 64.5356 29.1592 63.7303 28.9065C62.6487 28.567 61.5749 28.3144 60.5643 27.9196C59.538 27.5249 58.2274 27.1143 57.6037 26.3327C57.051 25.6458 56.3799 24.8879 56.5062 23.6089C56.8852 23.9562 57.1457 24.43 57.5563 24.7537" fill="#941409"/>
<path fill-rule="evenodd" clip-rule="evenodd" d="M70.7808 27.3196C70.8597 27.6986 70.9702 28.0302 71.1281 28.3144C71.1202 28.3381 71.1123 28.3539 71.1045 28.3775H71.0887C70.9071 28.196 70.4965 27.0275 70.6229 26.6011C70.7886 26.759 70.7255 27.059 70.7808 27.3196Z" fill="#941409"/>
<path fill-rule="evenodd" clip-rule="evenodd" d="M69.9987 27.367C70.2119 27.7617 70.425 28.1565 70.6382 28.5512C70.7566 28.7328 71.0093 28.9618 71.0409 29.1907C70.6145 28.9144 70.125 27.9354 69.8724 27.438C69.7934 27.2801 69.5566 26.9327 69.6355 26.7274C69.825 26.8222 69.8882 27.1854 69.9908 27.367" fill="#941409"/>
<path fill-rule="evenodd" clip-rule="evenodd" d="M68.917 27.7775C69.0512 27.9038 69.1776 28.0223 69.3118 28.1486C69.6513 28.6223 69.9829 29.096 70.3224 29.5697V29.6092C70.1013 29.4276 69.9434 29.1434 69.7697 28.9144C69.4618 28.5197 69.0907 28.1249 68.696 27.817C68.5302 27.6907 68.1512 27.4222 68.167 27.1775C68.4512 27.2722 68.7433 27.5643 68.917 27.7775Z" fill="#941409"/>
<path fill-rule="evenodd" clip-rule="evenodd" d="M70.196 29.0565C69.975 28.7565 69.7539 28.4565 69.5328 28.1565C69.3197 27.8801 69.0354 27.6512 68.8696 27.3275C68.8775 27.3038 68.8854 27.2801 68.8933 27.2564C69.2881 27.2959 70.0855 28.646 70.2039 29.0565" fill="#941409"/>
<path fill-rule="evenodd" clip-rule="evenodd" d="M68.8542 28.7644C68.9253 28.8039 69.0042 28.8434 69.0753 28.8907C69.2727 29.1355 69.478 29.3723 69.6832 29.6171C69.6832 29.6724 69.6911 29.7355 69.699 29.7908H69.6832C69.4385 29.0565 68.4595 28.7328 67.9463 28.2354C68.3332 28.267 68.6016 28.5828 68.8621 28.7644" fill="#941409"/>
<path fill-rule="evenodd" clip-rule="evenodd" d="M67.9777 32.0409C67.354 32.2541 66.9119 32.7988 66.4461 33.1778C66.1697 33.3989 65.9487 33.6831 65.7276 33.9673C64.6933 35.3174 63.9907 36.9596 63.5801 38.9334C63.5722 39.1229 63.5564 39.3124 63.5406 39.5018C63.4933 39.8098 63.4301 40.2598 63.4933 40.623C63.5012 40.9625 63.517 41.3019 63.5327 41.6493C63.3827 42.5889 63.2327 43.5442 62.609 44.0021C62.38 43.8521 62.159 43.7021 61.93 43.5442C61.4484 42.9362 60.951 41.9099 61.1879 40.7967C61.3221 40.1571 61.5668 39.6203 61.78 39.0202C62.7116 36.3754 64.7249 33.6831 66.975 32.3646C67.2514 32.1988 67.5909 32.1909 67.9146 32.0409H67.9777Z" fill="#941409"/>
<path fill-rule="evenodd" clip-rule="evenodd" d="M68.499 32.1435C68.499 32.1514 68.5069 32.1593 68.5069 32.1672C68.0648 32.4199 67.7332 32.9804 67.4568 33.4147C66.92 34.2752 66.5568 35.199 66.2726 36.3517C66.2094 36.7938 66.1462 37.2359 66.0831 37.686C66.0515 37.8596 66.1226 38.0018 66.0989 38.1518C66.0515 38.8702 66.012 39.5887 65.9646 40.3072C65.6725 41.8862 65.4041 43.41 64.8514 44.7442C64.7488 44.9811 64.5514 45.1548 64.4567 45.3759C64.4488 45.3759 64.4409 45.3838 64.433 45.3917C64.1409 44.9811 63.7066 44.4995 63.1855 44.3337C63.2724 43.4494 63.5724 42.8573 63.7303 42.0441C63.9198 41.0651 63.5408 39.9361 63.754 38.965C64.1724 37.0307 64.9225 35.3648 65.9489 34.0305C66.1383 33.7857 66.3515 33.5015 66.5884 33.3041C66.8726 33.0673 67.1568 32.8304 67.441 32.5857C67.7332 32.412 68.0253 32.2304 68.3174 32.0567C68.3727 32.0883 68.4358 32.1199 68.4911 32.1514" fill="#941409"/>
<path fill-rule="evenodd" clip-rule="evenodd" d="M71.349 32.7909C71.7042 33.4857 72.0516 34.1805 72.4701 34.8121C73.3307 36.1227 74.3254 37.2991 75.1702 38.6334C75.2966 38.7834 75.415 38.9334 75.5413 39.0913C75.7624 39.4387 75.9361 39.8413 76.094 40.2361C76.2361 40.5993 76.6229 41.752 76.4966 42.2494C76.4177 42.581 76.2124 42.8099 76.1019 43.0784C75.944 43.4415 75.8176 43.7495 75.5492 43.9863C75.5097 43.9863 75.4702 43.9705 75.4387 43.9626C75.2887 43.6705 75.4545 42.5178 75.3755 42.0678C75.186 40.9388 74.9413 40.015 74.5465 39.1229C74.1281 38.1755 73.4728 37.4491 72.9043 36.6596C71.9727 35.349 70.8753 33.8252 70.3384 32.1593C70.4252 32.1356 70.5121 32.1199 70.5989 32.0962C71.0805 32.0962 71.1753 32.4751 71.3411 32.7988" fill="#941409"/>
<path fill-rule="evenodd" clip-rule="evenodd" d="M70.2119 32.1751C70.3698 33.1699 71.112 34.2437 71.5778 34.9858C71.9173 35.5148 72.2568 36.0438 72.6041 36.5727C73.0226 37.1412 73.441 37.7175 73.8595 38.286C74.3648 39.0913 74.7358 40.0387 75.0043 41.0888C75.2806 42.1783 75.3596 44.4048 74.8069 45.218C74.649 45.4548 74.2937 45.7154 73.9779 45.7943C73.82 45.8101 73.6542 45.818 73.4963 45.8338C72.8568 45.3996 73.0936 45.0916 72.9279 44.2547C72.7542 43.5126 72.5726 42.7705 72.3989 42.0204C72.0831 40.8835 71.6251 39.865 71.1751 38.8544C70.8988 38.2386 70.5435 37.6386 70.2909 36.9912C70.0935 36.4938 69.9987 35.9727 69.8724 35.4043C69.7461 34.82 69.5408 32.8225 69.8093 32.262C69.8645 32.1988 70.0303 32.2146 70.1093 32.1751H70.204H70.2119Z" fill="#941409"/>
<path fill-rule="evenodd" clip-rule="evenodd" d="M69.1222 32.2778C68.8775 32.7673 68.688 33.2805 68.5696 33.92C68.5459 34.2595 68.5222 34.5989 68.4985 34.9463C68.4433 35.3095 68.4433 35.8069 68.4985 36.1701C68.5143 36.5096 68.5301 36.8491 68.5459 37.1965C68.5696 37.6544 68.5854 38.1202 68.6091 38.5781C68.6012 38.8308 68.5933 39.0913 68.5854 39.3439C68.5064 39.8808 68.5538 40.4098 68.4748 40.9072C68.388 41.9573 68.3011 42.9994 68.2143 44.0495C68.1906 44.4127 68.1669 44.7758 68.1432 45.1311C68.0248 45.8496 67.938 46.5444 67.7485 47.1523C67.6537 47.4681 67.4721 47.9655 67.18 48.076C67.0142 48.0523 66.8958 47.9181 66.7458 47.855C66.5405 47.7918 66.3352 47.7207 66.13 47.6576C65.6878 47.476 65.4115 47.026 65.1668 46.6312C65.0404 46.4259 64.8115 46.1654 64.8825 45.7785C65.0483 44.8548 65.3641 43.9784 65.6247 43.1178C65.8457 42.3915 65.9484 41.6178 66.1221 40.8519C66.28 40.1177 66.2721 39.1939 66.28 38.3334C66.2721 38.0018 66.2642 37.6781 66.2563 37.3465C66.5563 35.6648 67.0853 34.22 67.9064 33.0673C68.1274 32.7515 68.4275 32.5225 68.6722 32.2304C68.8222 32.2462 68.9801 32.262 69.1301 32.2778" fill="#941409"/>
<path fill-rule="evenodd" clip-rule="evenodd" d="M69.6436 32.262C69.3436 33.1383 69.5489 35.1437 69.7542 35.9648C70.1252 37.4175 70.7884 38.5071 71.3332 39.7624C71.6174 40.4098 71.878 41.0967 72.099 41.7993C72.2096 42.2415 72.3122 42.6757 72.4227 43.1178C72.5412 43.5126 72.6517 43.931 72.7227 44.3653C72.7227 44.5153 72.7148 44.6653 72.707 44.8232C72.707 45.4943 72.7306 46.2049 72.4701 46.6391C72.3596 46.8286 72.0359 46.9549 71.8543 47.0812C71.6964 47.2154 71.5385 47.3497 71.3885 47.4918C71.2148 47.6576 71.0411 47.8234 70.8674 47.9813C70.5121 48.2339 69.2883 48.8261 68.6251 48.7234C68.3488 48.676 67.9462 48.6524 67.8198 48.455C67.654 48.1787 67.8198 47.697 67.8909 47.4681C68.0962 46.8759 68.1988 46.2522 68.3251 45.5732C68.3488 45.3522 68.3646 45.1311 68.3883 44.91C68.483 43.6863 68.5857 42.4625 68.6883 41.2388C68.7909 40.6309 68.7199 39.9914 68.8225 39.3439C68.8304 39.1308 68.8383 38.9176 68.8462 38.7044C68.8225 38.207 68.7988 37.7017 68.7751 37.1965C68.7594 36.9122 68.7436 36.6201 68.7278 36.3359C68.6094 35.6253 68.6567 34.4726 68.7909 33.8173C68.8699 33.4541 68.9488 33.0989 69.0752 32.7831C69.1462 32.6251 69.2173 32.4672 69.2883 32.3172C69.3989 32.3093 69.5015 32.3014 69.6041 32.2936H69.6594L69.6436 32.262Z" fill="#941409"/>
<path fill-rule="evenodd" clip-rule="evenodd" d="M85.3551 26.4195C85.6946 26.5538 86.0499 26.6485 86.3184 26.8538C85.9868 26.7985 85.6631 26.7353 85.3315 26.6801C84.5262 26.5538 83.4366 26.8222 82.8129 26.9643C82.1892 27.1143 81.5576 27.1854 80.997 27.3985C79.6075 27.9354 78.3758 28.6223 77.002 29.1592C76.3231 29.4276 75.6204 29.6092 74.823 29.7513C74.4282 29.8224 73.8992 29.7908 73.7255 29.546C73.6861 29.3408 73.765 29.2065 73.8124 29.0644C74.0571 28.2433 74.523 28.0775 75.1783 27.6986C76.3231 27.0275 77.61 26.5143 79.0469 26.1432C79.5443 26.0169 80.0733 25.9774 80.6022 25.8827C80.8628 25.859 81.1233 25.8432 81.3918 25.8195C82.9708 25.8353 84.2261 25.9853 85.3473 26.4195" fill="#941409"/>
<path fill-rule="evenodd" clip-rule="evenodd" d="M88.15 29.5618C87.9368 29.4829 87.7473 29.3644 87.4947 29.3013C87.0446 29.1829 86.3578 29.1513 85.8525 29.1907C85.584 29.1907 85.3077 29.1986 85.0393 29.2065H84.5734C84.076 29.2855 83.5865 29.2539 83.1207 29.3408C81.6917 29.625 80.3969 29.925 79.0863 30.3119C78.502 30.4856 77.902 30.5566 77.2704 30.6908C76.6783 30.8172 76.0388 30.8882 75.4071 30.9987C75.1387 31.0224 74.8624 31.0382 74.5939 31.0619C74.3413 31.1014 73.9623 31.1251 73.7097 31.0777C73.4333 31.0224 73.1175 30.904 72.8728 30.8093C72.6912 30.5013 73.0228 30.3198 73.1728 30.154C73.5755 29.696 73.8597 30.0671 74.5545 29.9566C75.0519 29.8776 75.5098 29.846 75.944 29.7197C77.9178 29.1671 79.4258 28.1249 81.3206 27.5249C82.0944 27.2801 82.9707 27.1617 83.7997 26.9959C84.1787 26.9643 84.5655 26.9327 84.9445 26.9011C86.8473 26.9643 88.1657 27.5407 88.15 29.5618Z" fill="#941409"/>
<path fill-rule="evenodd" clip-rule="evenodd" d="M87.8343 29.7355C88.0712 29.8934 88.1659 30.225 88.387 30.3987C88.6633 30.6277 88.9476 30.7698 89.0976 31.1251C89.2634 31.5119 89.2713 31.9304 89.3818 32.4041C89.445 32.6804 89.5792 32.8778 89.6818 33.1067V33.1225C89.5081 33.0436 89.3265 32.9567 89.1528 32.8778C88.837 32.783 88.5291 32.6804 88.2133 32.5857C87.6606 32.4514 87.0606 32.483 86.4369 32.3883C85.6237 32.262 84.2578 32.2699 83.4367 32.3962C81.9919 32.5778 80.5471 32.7594 79.0944 32.9409C78.1391 33.0989 76.489 33.1857 75.4547 33.012C74.002 32.7673 72.9282 32.3567 71.8071 31.8277C71.8387 31.583 72.0045 31.3303 72.2019 31.2514C72.5335 31.1172 73.1335 31.1882 73.5125 31.2514C74.0809 31.354 74.8705 31.3066 75.4073 31.2119C76.4574 31.0303 77.4759 30.9514 78.4549 30.7066C79.7497 30.3829 80.9892 30.0355 82.3156 29.7197C82.9077 29.5776 83.5394 29.5618 84.1789 29.4592C84.5421 29.4434 84.9052 29.4355 85.2605 29.4197C86.2158 29.4197 87.258 29.3486 87.8264 29.7276" fill="#941409"/>
<path fill-rule="evenodd" clip-rule="evenodd" d="M72.7387 32.4988C73.4887 32.8225 74.2624 33.0436 75.1783 33.2252C76.5441 33.5015 78.6679 33.3278 79.9469 33.0989C81.0286 32.9567 82.1102 32.8225 83.1919 32.6804C83.6735 32.6488 84.163 32.6173 84.6446 32.5857C85.0472 32.5857 85.4578 32.5936 85.8683 32.5936C86.2473 32.6173 86.6342 32.6409 87.0131 32.6646C87.9842 32.8225 89.3185 32.8936 89.6975 33.6041C89.8554 33.8963 89.6264 34.3068 89.6107 34.591C89.6422 34.7805 89.6738 34.97 89.7054 35.1595C89.6501 35.8069 89.0501 36.5017 88.2053 36.3517C86.7131 36.1069 85.1499 35.8227 83.3735 35.8306C82.2287 35.8859 81.0918 35.949 79.9469 36.0043C79.3469 36.099 78.5258 36.0674 77.9653 35.9648C76.3468 35.6806 75.0204 35.2227 73.8361 34.52C73.3308 34.2279 72.8729 33.9357 72.4149 33.6041C72.3044 33.5331 72.2018 33.4541 72.0912 33.3831C71.9412 33.1936 71.7912 32.3883 71.7991 32.0172C72.1149 32.1751 72.4228 32.333 72.7387 32.483" fill="#941409"/>
<path fill-rule="evenodd" clip-rule="evenodd" d="M73.2045 34.37C74.5151 35.1911 75.9047 35.799 77.7048 36.1543C78.3048 36.2727 79.347 36.3359 80.0259 36.2254C81.2813 36.1701 82.5366 36.1069 83.7841 36.0517C84.7788 36.0517 85.7421 36.1385 86.6421 36.2964C87.0763 36.3754 87.6053 36.3359 87.8974 36.557C88.1027 36.707 88.158 36.857 88.158 37.2123C87.3606 38.2149 85.2368 37.6465 83.7288 37.9386C83.413 38.0018 82.8998 38.1913 82.6471 38.3492C82.4971 38.4439 82.3471 38.5465 82.205 38.6492C81.9366 38.7281 81.4866 38.6808 81.1944 38.665C80.2549 38.6097 79.4338 38.4676 78.668 38.2544C76.8758 37.757 75.123 37.2359 73.844 36.2175C73.6782 35.9806 73.5124 35.7516 73.3545 35.5148C72.9124 34.8911 72.5255 34.3226 72.186 33.6042C72.5334 33.8489 72.8492 34.141 73.2124 34.37" fill="#941409"/>
<path fill-rule="evenodd" clip-rule="evenodd" d="M75.1069 37.1965C76.1806 37.8281 77.8228 38.2702 79.165 38.6176C79.6703 38.7439 80.2229 38.7755 80.7677 38.8623C81.1467 38.9255 81.5177 38.8939 81.802 38.9966C81.8099 39.0281 81.8257 39.0518 81.8415 39.0834C81.8257 39.2413 81.5256 39.4229 81.4072 39.5413C81.2493 39.6834 81.0914 39.8255 80.9335 39.9756C80.2861 40.2756 79.2834 40.3703 78.4702 40.1966C78.1544 40.1335 77.9097 39.9913 77.6412 39.8729C77.207 39.6913 76.7491 39.5334 76.3938 39.265C75.6832 38.736 75.2411 37.9939 74.72 37.2833C74.5147 37.007 74.2384 36.7938 74.041 36.5096C74.3884 36.7385 74.7358 36.9833 75.099 37.1965" fill="#941409"/>
<path fill-rule="evenodd" clip-rule="evenodd" d="M60.0745 28.3775C60.5798 28.496 61.0851 28.6144 61.5904 28.7328C61.9298 28.8039 62.2693 28.8749 62.6167 28.946C63.5641 29.2065 64.5037 29.5302 65.3642 29.8697C66.059 30.1461 67.0775 30.2645 67.5117 30.8172C65.6248 30.3198 63.801 29.7355 61.7877 29.3013C60.9272 29.1118 59.9955 29.1592 59.0639 29.0171C58.7165 29.0092 58.3612 29.0013 58.0138 28.9934C57.6664 28.9934 57.3112 28.9855 56.9638 28.9776C56.1348 28.9776 55.2821 28.9618 54.5479 29.1039C54.7294 28.9934 54.911 28.8986 55.0926 28.796C55.3926 28.6618 55.7163 28.5591 56.0558 28.4723C56.4269 28.417 56.798 28.3539 57.1691 28.2986C57.3427 28.2828 57.5243 28.2749 57.698 28.2591C58.5191 28.2591 59.3402 28.2275 60.0745 28.3696" fill="#941409"/>
<path fill-rule="evenodd" clip-rule="evenodd" d="M61.9144 29.5618C62.4591 29.6487 63.0118 29.7434 63.5566 29.8303C64.0145 30.0197 64.5829 30.0987 65.0724 30.2487C65.6172 30.4145 66.162 30.5882 66.6988 30.754C66.4225 30.7303 66.1383 30.7145 65.862 30.6908C65.6804 30.6829 65.4909 30.675 65.3093 30.6671C64.5829 30.6435 63.8566 30.6592 63.2092 30.7619C61.4012 31.0698 59.759 31.3856 58.0457 31.7567C57.5325 31.8672 56.9641 31.8514 56.4193 31.9462C55.7561 32.0567 53.8139 32.0883 53.4113 31.8198C53.1428 31.6382 53.1823 31.204 53.277 30.8329C53.4034 30.3119 53.8771 29.4671 54.3034 29.2776C54.864 29.246 55.4324 29.2144 55.993 29.1828C58.101 29.1828 60.1537 29.1986 61.9223 29.5539" fill="#941409"/>
<path fill-rule="evenodd" clip-rule="evenodd" d="M67.7091 31.4961C67.638 31.7093 66.888 31.7488 66.6511 31.8435C65.7353 32.1988 64.9458 32.6172 64.2352 33.162C63.3825 33.8173 62.6167 34.7016 61.993 35.5937C61.8035 35.9332 61.6061 36.2648 61.4087 36.6043C60.864 37.4728 60.2482 38.2228 59.4586 38.8465C59.1112 39.1229 58.7481 39.3755 58.3691 39.6361C58.2428 39.7229 58.0533 39.9124 57.8875 39.944C57.627 39.9913 57.4296 39.8177 57.2875 39.7466C57.0822 39.6519 56.869 39.6282 56.6795 39.5097C56.4743 39.3834 56.269 39.0518 56.1348 38.8544C56.3716 38.6018 56.7348 38.4992 57.0506 38.3097C57.6191 37.9702 58.1559 37.6149 58.6533 37.2122C58.9691 36.8728 59.277 36.5333 59.5929 36.1859C59.9481 35.8227 60.2955 35.4516 60.6508 35.0884C61.4008 34.1568 62.3877 33.1936 63.4141 32.5462C64.0457 32.1435 64.7484 31.8198 65.5616 31.5988C65.83 31.5514 66.1064 31.504 66.3748 31.4488C66.5248 31.433 66.6748 31.4251 66.8169 31.4093C67.1485 31.4093 67.4328 31.4409 67.7012 31.4803" fill="#941409"/>
<path fill-rule="evenodd" clip-rule="evenodd" d="M67.3145 31.8356C67.0856 31.9462 66.8645 32.0488 66.6356 32.1593C66.1934 32.4199 65.775 32.6962 65.3802 32.9962C64.2828 33.8252 63.4617 35.0648 62.6643 36.1859C62.2853 36.7306 61.8985 37.3228 61.63 37.9623C61.4011 38.4992 61.2668 39.1071 60.8168 39.415C60.5642 39.5334 60.3115 39.644 60.0668 39.7624C59.7589 39.8966 59.3167 40.1966 58.843 40.1177C58.6772 40.0782 58.5114 40.0387 58.3535 39.9914C58.5509 39.6834 58.922 39.5176 59.2141 39.2966C59.6878 38.9492 60.3115 38.4439 60.6668 37.986C61.0537 37.5044 61.3221 36.9754 61.63 36.4069C61.7721 36.2175 61.9142 36.0201 62.0642 35.8306C62.7432 34.8595 63.517 33.9279 64.4565 33.2173C65.0486 32.7752 65.7118 32.4041 66.4382 32.0962C66.7145 32.0093 66.9987 31.9146 67.2751 31.8277H67.3145V31.8356Z" fill="#941409"/>
<path fill-rule="evenodd" clip-rule="evenodd" d="M52.9376 36.0753C52.6297 36.0595 52.3533 35.9727 52.1323 35.799C52.0533 35.6885 51.9665 35.5779 51.8875 35.4674C51.7928 35.349 51.6664 35.2542 51.6033 35.1121C51.2322 34.22 52.0454 32.712 52.5507 32.4751C52.6691 32.4199 52.7955 32.3804 52.9297 32.3409C54.0034 32.0646 55.4877 32.3883 56.7352 32.1909C57.3905 32.0883 58.0063 32.0804 58.5984 31.9304C59.23 31.7725 59.7985 31.5277 60.3985 31.3856C60.9591 31.2593 61.4959 31.2198 62.0249 31.1172C62.6171 31.054 63.2171 30.9829 63.8092 30.9198C64.1171 30.904 64.4172 30.8961 64.7251 30.8803C65.2619 30.8882 65.7909 30.904 66.3278 30.9198C65.9409 30.9514 65.5462 30.9751 65.1593 31.0066C64.4803 31.133 63.8803 31.2751 63.3197 31.5119C61.5749 32.2541 59.9485 33.1857 58.3616 34.1173C57.422 34.6621 56.3246 35.0805 55.3061 35.5069C54.7693 35.7358 53.7429 36.1227 52.9297 36.0753" fill="#941409"/>
<path fill-rule="evenodd" clip-rule="evenodd" d="M52.9372 38.286C52.7161 38.1676 52.5346 38.0254 52.3924 37.8518C52.2582 37.686 51.9108 37.2596 52.0924 36.9675C52.274 36.6912 52.5819 36.5806 52.9293 36.4859C53.0951 36.4385 53.2767 36.399 53.4504 36.3517C54.2873 36.099 55.14 35.8543 55.89 35.5227C56.7032 35.1674 57.5796 34.8279 58.3296 34.3858C59.9166 33.4541 61.5351 32.4909 63.2957 31.733C63.8168 31.5119 64.3615 31.3619 64.9695 31.2277C65.309 31.1961 65.6485 31.1645 65.9958 31.133C66.6117 31.133 67.0459 31.1487 67.5038 31.2672C67.3222 31.2593 67.1327 31.2514 66.9512 31.2435C66.5248 31.2435 66.1064 31.2751 65.7432 31.3698C64.4642 31.6935 63.4694 32.2225 62.5614 32.9094C61.9219 33.391 61.314 34.0068 60.8087 34.6226C60.4455 35.0174 60.0745 35.4042 59.7113 35.7911C59.2534 36.3596 58.7639 36.928 58.1796 37.3701C57.5164 37.8754 56.6795 38.3176 55.8268 38.6018C55.7716 38.6334 55.2821 38.4992 55.061 38.5386C54.2794 38.6729 53.4899 38.5781 52.9293 38.286" fill="#941409"/>
<path d="M94 25.6902V20.3895H99.0968V13.4579L109.29 13.4579V20.3895H119.28V25.6902H109.29V35.4761L111.737 36.6993L127.435 36.6993V42L109.087 42L99.0968 37.1071V25.6902H94ZM126.572 25.6902V20.3895L141.862 20.3895V35.4761L144.309 36.6993H157.968V20.3895L168.162 20.3895V42H160.863L158.784 39.9613L156.745 42H141.658L131.669 37.1071V25.6902H126.572ZM175.516 42V33.8451L185.709 34.8645V36.6993H201.407V34.8645L175.516 31.1948V20.3895L211.601 20.3895V28.5444L201.407 27.5251V25.6902L185.709 25.6902V27.3212L211.601 30.9909V42L175.516 42Z" fill="white"/>
</svg>
